<svg viewBox="0 0 770 460" xmlns="http://www.w3.org/2000/svg" font-family="-apple-system, BlinkMacSystemFont, 'Segoe UI', sans-serif">
  <!-- Background -->
  <rect width="770" height="460" fill="#1a2330"/>

  <!-- Title -->
  <text x="380" y="34" text-anchor="middle" fill="#f0e6d2" font-size="16" font-weight="600">Full 400k-batch finetuning on T15</text>
  <text x="380" y="54" text-anchor="middle" fill="#f0e6d2" font-size="12" font-weight="400" opacity="0.7">AR-Binary (causal) somatosensory checkpoint, epoch 400</text>

  <!-- Plot area: x 80-680, y 80-390. PER range 0.085-0.195 -->
  <rect x="80" y="80" width="600" height="310" fill="#212b3a"/>

  <!-- Horizontal grid at PER = 0.19, 0.17, 0.15, 0.13, 0.11, 0.09 -->
  <g stroke="#f0e6d2" stroke-opacity="0.08" stroke-width="1">
    <line x1="80" y1="94.09" x2="680" y2="94.09"/>
    <line x1="80" y1="150.45" x2="680" y2="150.45"/>
    <line x1="80" y1="206.82" x2="680" y2="206.82"/>
    <line x1="80" y1="263.18" x2="680" y2="263.18"/>
    <line x1="80" y1="319.55" x2="680" y2="319.55"/>
    <line x1="80" y1="375.91" x2="680" y2="375.91"/>
  </g>

  <!-- Vertical grid at 100k, 200k, 300k -->
  <g stroke="#f0e6d2" stroke-opacity="0.08" stroke-width="1">
    <line x1="230" y1="80" x2="230" y2="390"/>
    <line x1="380" y1="80" x2="380" y2="390"/>
    <line x1="530" y1="80" x2="530" y2="390"/>
  </g>

  <!-- Y axis labels -->
  <g fill="#f0e6d2" font-size="11" opacity="0.7" text-anchor="end">
    <text x="72" y="98">0.19</text>
    <text x="72" y="154">0.17</text>
    <text x="72" y="211">0.15</text>
    <text x="72" y="267">0.13</text>
    <text x="72" y="323">0.11</text>
    <text x="72" y="380">0.09</text>
  </g>

  <!-- X axis labels -->
  <g fill="#f0e6d2" font-size="11" opacity="0.7" text-anchor="middle">
    <text x="80" y="410">0</text>
    <text x="230" y="410">100k</text>
    <text x="380" y="410">200k</text>
    <text x="530" y="410">300k</text>
    <text x="680" y="410">400k</text>
  </g>

  <!-- Axis labels -->
  <text x="380" y="436" text-anchor="middle" fill="#f0e6d2" font-size="12" font-weight="500">Training step</text>
  <text x="22" y="235" text-anchor="middle" fill="#f0e6d2" font-size="12" font-weight="500" transform="rotate(-90, 22, 235)">Validation PER</text>

  <!-- GRU baseline reference line at PER = 0.0978, y = 353.93 -->
  <line x1="80" y1="353.93" x2="680" y2="353.93" stroke="#e0b870" stroke-width="1.2" stroke-dasharray="5 4" opacity="0.85"/>
  <!-- Label box moved BELOW the dashed line -->
  <rect x="90" y="357" width="170" height="18" rx="3" fill="#1a2330" opacity="0.95"/>
  <text x="100" y="370" fill="#e0b870" font-size="11" font-weight="500">GRU baseline (0.0978)</text>

  <!-- −9.3% annotation (top-right, away from curve) -->
  <text x="668" y="100" text-anchor="end" fill="#f0e6d2" font-size="11" opacity="0.65" font-style="italic">−9.3% relative vs GRU baseline</text>

  <!-- Plot box border -->
  <rect x="80" y="80" width="600" height="310" fill="none" stroke="#f0e6d2" stroke-opacity="0.25" stroke-width="1"/>

  <!-- Validation PER curve (62 points, faithful to wandb shape) -->
  <path d="M 80,108.18 L 84.5,164.55 89,206.82 95,229.36 102.5,249.09 110,263.18 117.5,274.45 125,280.09 132.5,282.91 140,274.45 147.5,285.73 155,299.82 162.5,294.18 170,302.64 177.5,294.18 185,305.45 192.5,308.27 200,308.27 207.5,311.09 215,313.91 222.5,316.73 230,316.73 237.5,319.55 245,319.55 252.5,313.91 260,322.36 267.5,325.18 275,328 282.5,325.18 290,336.45 297.5,328 305,325.18 312.5,330.82 320,336.45 327.5,333.64 335,339.27 342.5,336.45 350,342.09 357.5,336.45 365,342.09 372.5,339.27 380,342.09 395,339.27 410,344.91 425,347.73 440,350.55 455,350.55 470,356.18 485,353.36 500,359 515,367.45 530,359 545,364.64 560,370.27 575,370.27 590,373.09 605,373.09 620,373.09 635,375.91 650,375.91 665,378.73 680,379.55"
        fill="none" stroke="#7fcdb4" stroke-width="2" stroke-linecap="round" stroke-linejoin="round"/>

  <!-- Endpoint marker -->
  <circle cx="680" cy="379.55" r="5" fill="#7fcdb4" stroke="#1a2330" stroke-width="1.5"/>
  <circle cx="680" cy="379.55" r="9" fill="none" stroke="#7fcdb4" stroke-width="1.2" opacity="0.5"/>

  <!-- Endpoint value: small tick + bold label on right side (now within extended viewBox) -->
  <line x1="680" y1="379.55" x2="690" y2="379.55" stroke="#7fcdb4" stroke-width="2"/>
  <text x="694" y="383" fill="#7fcdb4" font-size="13" font-weight="700">0.0887</text>
</svg>
